<svg width="81" height="81" viewBox="0 0 81 81" fill="none" xmlns="http://www.w3.org/2000/svg">
<g>
<circle cx="40.5" cy="40.5" r="40.5" fill="white" fill-opacity="0.49"/>
</g>
<g>
<path d="M17.7477 38.3636C17.5341 38.3636 17.3739 38.3102 17.2136 38.15C17.0534 37.9898 17 37.8295 17 37.6159V24.05C17 22.1807 17.7477 20.3648 19.083 19.0295C20.4182 17.6943 22.1807 17 24.05 17H37.6159C37.8295 17 37.9898 17.0534 38.15 17.2136C38.3102 17.3739 38.3636 17.5341 38.3636 17.7477C38.3636 17.9614 38.3102 18.1216 38.15 18.2818C37.9898 18.442 37.8295 18.4955 37.6159 18.4955H24.05C22.5545 18.4955 21.1125 19.083 20.0977 20.1511C19.0295 21.2193 18.442 22.608 18.442 24.1034V37.6693C18.442 37.883 18.3886 38.0432 18.2284 38.2034C18.1216 38.3102 17.908 38.3636 17.7477 38.3636Z" fill="white"/>
<path d="M63.2523 42.6364C63.4659 42.6364 63.6261 42.6898 63.7864 42.85C63.9466 43.0102 64 43.1705 64 43.3841V56.95C64 58.8193 63.2523 60.6352 61.917 61.9705C60.5818 63.3057 58.8193 64.0534 56.8966 64.0534H43.3841C43.1704 64.0534 43.0102 64 42.85 63.8398C42.6898 63.6796 42.6364 63.5193 42.6364 63.3057C42.6364 63.0921 42.6898 62.9318 42.85 62.7716C43.0102 62.6114 43.1704 62.558 43.3841 62.558H56.95C58.4454 62.558 59.8875 61.9705 60.9023 60.9023C61.9704 59.8341 62.5579 58.4455 62.5579 56.95V43.3841C62.5579 43.1705 62.6113 43.0102 62.7716 42.85C62.8784 42.6898 63.092 42.6364 63.2523 42.6364Z" fill="white"/>
<path d="M38.3636 63.2523C38.3636 63.4659 38.3102 63.6261 38.15 63.7864C37.9898 63.9466 37.8295 64 37.6159 64H24.05C22.1807 64 20.3648 63.2523 19.0295 61.917C17.7477 60.5818 17 58.8193 17 56.95V43.3841C17 43.1705 17.0534 43.0102 17.2136 42.85C17.3739 42.6898 17.5341 42.6364 17.7477 42.6364C17.9614 42.6364 18.1216 42.6898 18.2818 42.85C18.442 43.0102 18.4955 43.1705 18.4955 43.3841V56.95C18.4955 58.4455 19.083 59.8875 20.1511 60.9023C21.2193 61.9705 22.608 62.558 24.1034 62.558H37.6693C37.883 62.558 38.0432 62.6114 38.2034 62.7716C38.3102 62.8784 38.3636 63.092 38.3636 63.2523Z" fill="white"/>
<path d="M42.6364 17.7477C42.6364 17.5341 42.6898 17.3739 42.85 17.2136C43.0102 17.0534 43.1704 17 43.3841 17H56.95C58.8193 17 60.6352 17.7477 61.9704 19.083C63.3057 20.4182 64.0534 22.1807 64.0534 24.1034V37.6693C64.0534 37.883 64 38.0432 63.8398 38.2034C63.6795 38.3636 63.5193 38.417 63.3057 38.417C63.092 38.417 62.9318 38.3636 62.7716 38.2034C62.6114 38.0432 62.558 37.883 62.558 37.6693V24.05C62.558 22.5545 61.9704 21.1125 60.9023 20.0977C59.8341 19.0295 58.4454 18.442 56.95 18.442H43.3841C43.1704 18.442 43.0102 18.3886 42.85 18.2284C42.6898 18.1216 42.6364 17.908 42.6364 17.7477Z" fill="white"/>
<path d="M51.1284 32.8091C50.7011 32.8091 50.3273 32.4352 50.3273 32.008V27.5216C50.3273 27.0943 50.7011 26.7205 51.1284 26.7205C51.5557 26.7205 51.9296 27.0943 51.9296 27.5216V32.008C51.9296 32.4352 51.6091 32.8091 51.1284 32.8091Z" fill="white"/>
<path d="M29.8716 32.8091C29.4443 32.8091 29.0704 32.4352 29.0704 32.008V27.5216C29.0704 27.0943 29.4443 26.7205 29.8716 26.7205C30.2988 26.7205 30.6727 27.0943 30.6727 27.5216V32.008C30.6727 32.4352 30.2988 32.8091 29.8716 32.8091Z" fill="white"/>
<path d="M42.5295 42.2091H38.417C37.9897 42.2091 37.6158 41.8352 37.6158 41.408C37.6158 40.9807 37.9897 40.6068 38.417 40.6068H41.7283V30.2455C41.7283 29.8182 42.1022 29.4443 42.5295 29.4443C42.9568 29.4443 43.3306 29.8182 43.3306 30.2455V41.408C43.3306 41.8352 43.0102 42.2091 42.5295 42.2091Z" fill="white"/>
<path d="M40.4999 54.333C36.2272 54.333 31.3669 54.333 31.3669 50.1136C31.3669 49.6864 31.7408 49.3125 32.1681 49.3125C32.5954 49.3125 32.9692 49.6864 32.9692 50.1136C32.9692 52.3568 35.2658 52.7307 40.4999 52.7307C45.6806 52.7307 48.0306 52.3568 48.0306 50.1136C48.0306 49.6864 48.4044 49.3125 48.8317 49.3125C49.259 49.3125 49.6329 49.6864 49.6329 50.1136C49.6329 54.333 44.7726 54.333 40.4999 54.333Z" fill="white"/>
</g>
</svg>
