<svg width="88" height="88" viewBox="0 0 88 88" fill="none" xmlns="http://www.w3.org/2000/svg">
<g clip-path="url(#clip0)">
<path d="M1.4 40C1 40 0.7 39.9 0.4 39.6C0.1 39.3 0 39 0 38.6V13.2C0 9.7 1.4 6.3 3.9 3.8C6.4 1.3 9.7 0 13.2 0H38.6C39 0 39.3 0.1 39.6 0.4C39.9 0.7 40 1 40 1.4C40 1.8 39.9 2.1 39.6 2.4C39.3 2.7 39 2.8 38.6 2.8H13.2C10.4 2.8 7.7 3.9 5.8 5.9C3.8 7.9 2.7 10.5 2.7 13.3V38.7C2.7 39.1 2.6 39.4 2.3 39.7C2.1 39.9 1.7 40 1.4 40Z" fill="white"/>
<path d="M86.6 48C87 48 87.3 48.1 87.6 48.4C87.9 48.7 88 49 88 49.4V74.8C88 78.3 86.6 81.7 84.1 84.2C81.6 86.7 78.3 88.1 74.7 88.1H49.4C49 88.1 48.7 88 48.4 87.7C48.1 87.4 48 87.1 48 86.7C48 86.3 48.1 86 48.4 85.7C48.7 85.4 49 85.3 49.4 85.3H74.8C77.6 85.3 80.3 84.2 82.2 82.2C84.2 80.2 85.3 77.6 85.3 74.8V49.4C85.3 49 85.4 48.7 85.7 48.4C85.9 48.1 86.3 48 86.6 48Z" fill="white"/>
<path d="M40 86.6C40 87 39.9 87.3 39.6 87.6C39.3 87.9 39 88 38.6 88H13.2C9.7 88 6.3 86.6 3.8 84.1C1.4 81.6 0 78.3 0 74.8V49.4C0 49 0.1 48.7 0.4 48.4C0.7 48.1 1 48 1.4 48C1.8 48 2.1 48.1 2.4 48.4C2.7 48.7 2.8 49 2.8 49.4V74.8C2.8 77.6 3.9 80.3 5.9 82.2C7.9 84.2 10.5 85.3 13.3 85.3H38.7C39.1 85.3 39.4 85.4 39.7 85.7C39.9 85.9 40 86.3 40 86.6Z" fill="white"/>
<path d="M48 1.4C48 1 48.1 0.7 48.4 0.4C48.7 0.1 49 0 49.4 0H74.8C78.3 0 81.7 1.4 84.2 3.9C86.7 6.4 88.1 9.7 88.1 13.3V38.7C88.1 39.1 88 39.4 87.7 39.7C87.4 40 87.1 40.1 86.7 40.1C86.3 40.1 86 40 85.7 39.7C85.4 39.4 85.3 39.1 85.3 38.7V13.2C85.3 10.4 84.2 7.7 82.2 5.8C80.2 3.8 77.6 2.7 74.8 2.7H49.4C49 2.7 48.7 2.6 48.4 2.3C48.1 2.1 48 1.7 48 1.4Z" fill="white"/>
<path d="M63.9001 29.6C63.1001 29.6 62.4001 28.9 62.4001 28.1V19.7C62.4001 18.9 63.1001 18.2 63.9001 18.2C64.7001 18.2 65.4001 18.9 65.4001 19.7V28.1C65.4001 28.9 64.8001 29.6 63.9001 29.6Z" fill="white"/>
<path d="M24.1001 29.6C23.3001 29.6 22.6001 28.9 22.6001 28.1V19.7C22.6001 18.9 23.3001 18.2 24.1001 18.2C24.9001 18.2 25.6001 18.9 25.6001 19.7V28.1C25.6001 28.9 24.9001 29.6 24.1001 29.6Z" fill="white"/>
<path d="M47.8001 47.2H40.1001C39.3001 47.2 38.6001 46.5 38.6001 45.7C38.6001 44.9 39.3001 44.2 40.1001 44.2H46.3001V24.8C46.3001 24 47.0001 23.3 47.8001 23.3C48.6001 23.3 49.3001 24 49.3001 24.8V45.7C49.3001 46.5 48.7001 47.2 47.8001 47.2Z" fill="white"/>
<path d="M44.0001 69.9C36.0001 69.9 26.9001 69.9 26.9001 62C26.9001 61.2 27.6001 60.5 28.4001 60.5C29.2001 60.5 29.9001 61.2 29.9001 62C29.9001 66.2 34.2001 66.9 44.0001 66.9C53.7001 66.9 58.1001 66.2 58.1001 62C58.1001 61.2 58.8001 60.5 59.6001 60.5C60.4001 60.5 61.1001 61.2 61.1001 62C61.1001 69.9 52.0001 69.9 44.0001 69.9Z" fill="white"/>
</g>
</svg>
