<svg width="88" height="88" viewBox="0 0 88 88" fill="none" xmlns="http://www.w3.org/2000/svg">
<path d="M59.5251 25.175C59.3251 25.175 59.1251 25.125 58.9501 25.025C54.1501 22.55 50.0001 21.5 45.0251 21.5C40.0751 21.5 35.3751 22.675 31.1001 25.025C30.5001 25.35 29.7501 25.125 29.4001 24.525C29.0751 23.925 29.3001 23.15 29.9001 22.825C34.5501 20.3 39.6501 19 45.0251 19C50.3501 19 55.0001 20.175 60.1001 22.8C60.7251 23.125 60.9501 23.875 60.6251 24.475C60.4001 24.925 59.9751 25.175 59.5251 25.175ZM23.7501 38.3C23.5001 38.3 23.2501 38.225 23.0251 38.075C22.4501 37.675 22.3251 36.9 22.7251 36.325C25.2001 32.825 28.3501 30.075 32.1001 28.15C39.9501 24.1 50.0001 24.075 57.8751 28.125C61.6251 30.05 64.7751 32.775 67.2501 36.25C67.6501 36.8 67.5251 37.6 66.9501 38C66.3751 38.4 65.6001 38.275 65.2001 37.7C62.9501 34.55 60.1001 32.075 56.7251 30.35C49.5501 26.675 40.3751 26.675 33.2251 30.375C29.8251 32.125 26.9751 34.625 24.7251 37.775C24.5251 38.125 24.1501 38.3 23.7501 38.3ZM39.3751 68.475C39.0501 68.475 38.7251 68.35 38.5001 68.1C36.3251 65.925 35.1501 64.525 33.4751 61.5C31.7501 58.425 30.8501 54.675 30.8501 50.65C30.8501 43.225 37.2001 37.175 45.0001 37.175C52.8001 37.175 59.1501 43.225 59.1501 50.65C59.1501 51.35 58.6001 51.9 57.9001 51.9C57.2001 51.9 56.6501 51.35 56.6501 50.65C56.6501 44.6 51.4251 39.675 45.0001 39.675C38.5751 39.675 33.3501 44.6 33.3501 50.65C33.3501 54.25 34.1501 57.575 35.6751 60.275C37.2751 63.15 38.3751 64.375 40.3001 66.325C40.7751 66.825 40.7751 67.6 40.3001 68.1C40.0251 68.35 39.7001 68.475 39.3751 68.475ZM57.3001 63.85C54.3251 63.85 51.7001 63.1 49.5501 61.625C45.8251 59.1 43.6001 55 43.6001 50.65C43.6001 49.95 44.1501 49.4 44.8501 49.4C45.5501 49.4 46.1001 49.95 46.1001 50.65C46.1001 54.175 47.9001 57.5 50.9501 59.55C52.7251 60.75 54.8001 61.325 57.3001 61.325C57.9001 61.325 58.9001 61.25 59.9001 61.075C60.5751 60.95 61.2251 61.4 61.3501 62.1C61.4751 62.775 61.0251 63.425 60.3251 63.55C58.9001 63.825 57.6501 63.85 57.3001 63.85ZM52.2751 69C52.1751 69 52.0501 68.975 51.9501 68.95C47.9751 67.85 45.3751 66.375 42.6501 63.7C39.1501 60.225 37.2251 55.6 37.2251 50.65C37.2251 46.6 40.6751 43.3 44.9251 43.3C49.1751 43.3 52.6251 46.6 52.6251 50.65C52.6251 53.325 54.9501 55.5 57.8251 55.5C60.7001 55.5 63.0251 53.325 63.0251 50.65C63.0251 41.225 54.9001 33.575 44.9001 33.575C37.8001 33.575 31.3001 37.525 28.3751 43.65C27.4001 45.675 26.9001 48.05 26.9001 50.65C26.9001 52.6 27.0751 55.675 28.5751 59.675C28.8251 60.325 28.5001 61.05 27.8501 61.275C27.2001 61.525 26.4751 61.175 26.2501 60.55C25.0251 57.275 24.4251 54.025 24.4251 50.65C24.4251 47.65 25.0001 44.925 26.1251 42.55C29.4501 35.575 36.8251 31.05 44.9001 31.05C56.2751 31.05 65.5251 39.825 65.5251 50.625C65.5251 54.675 62.0751 57.975 57.8251 57.975C53.5751 57.975 50.1251 54.675 50.1251 50.625C50.1251 47.95 47.8001 45.775 44.9251 45.775C42.0501 45.775 39.7251 47.95 39.7251 50.625C39.7251 54.9 41.3751 58.9 44.4001 61.9C46.7751 64.25 49.0501 65.55 52.5751 66.525C53.2501 66.7 53.6251 67.4 53.4501 68.05C53.3251 68.625 52.8001 69 52.2751 69Z" fill="white"/>
<path d="M1.35593 40C0.996317 40 0.651429 39.8571 0.397142 39.6029C0.142856 39.3486 0 39.0037 0 38.6441V13.2407C0.00358952 9.73013 1.39974 6.3644 3.88207 3.88207C6.3644 1.39974 9.73013 0.00358952 13.2407 0H38.6441C39.0037 0 39.3486 0.142856 39.6029 0.397142C39.8571 0.651429 40 0.996317 40 1.35593C40 1.71555 39.8571 2.06044 39.6029 2.31472C39.3486 2.56901 39.0037 2.71186 38.6441 2.71186H13.2407C10.4494 2.71545 7.7734 3.82589 5.79964 5.79964C3.82589 7.7734 2.71545 10.4494 2.71186 13.2407V38.6441C2.71186 39.0037 2.56901 39.3486 2.31472 39.6029C2.06044 39.8571 1.71555 40 1.35593 40Z" fill="white"/>
<path d="M86.6441 48C87.0037 48 87.3486 48.1429 87.6029 48.3971C87.8571 48.6514 88 48.9963 88 49.3559L88 74.7593C87.9964 78.2699 86.6003 81.6356 84.1179 84.1179C81.6356 86.6003 78.2699 87.9964 74.7593 88L49.3559 88C48.9963 88 48.6514 87.8571 48.3971 87.6029C48.1429 87.3486 48 87.0037 48 86.6441C48 86.2844 48.1429 85.9396 48.3971 85.6853C48.6514 85.431 48.9963 85.2881 49.3559 85.2881L74.7593 85.2881C77.5506 85.2845 80.2266 84.1741 82.2004 82.2004C84.1741 80.2266 85.2845 77.5506 85.2881 74.7593L85.2881 49.3559C85.2881 48.9963 85.431 48.6514 85.6853 48.3971C85.9396 48.1429 86.2845 48 86.6441 48Z" fill="white"/>
<path d="M40 86.6441C40 87.0037 39.8571 87.3486 39.6029 87.6029C39.3486 87.8571 39.0037 88 38.6441 88L13.2407 88C9.73013 87.9964 6.3644 86.6003 3.88207 84.1179C1.39974 81.6356 0.00358909 78.2699 -5.78768e-07 74.7593L-1.68919e-06 49.3559C-1.70491e-06 48.9963 0.142854 48.6514 0.397141 48.3971C0.651427 48.1429 0.996315 48 1.35593 48C1.71555 48 2.06043 48.1429 2.31472 48.3971C2.56901 48.6514 2.71186 48.9963 2.71186 49.3559L2.71186 74.7593C2.71545 77.5506 3.82588 80.2266 5.79964 82.2004C7.7734 84.1741 10.4494 85.2845 13.2407 85.2881L38.6441 85.2881C39.0037 85.2881 39.3486 85.431 39.6029 85.6853C39.8571 85.9396 40 86.2845 40 86.6441Z" fill="white"/>
<path d="M48 1.35593C48 0.996317 48.1429 0.651429 48.3971 0.397143C48.6514 0.142856 48.9963 4.65114e-07 49.3559 4.60826e-07L74.7593 1.57894e-07C78.2699 0.00358963 81.6356 1.39974 84.1179 3.88207C86.6003 6.3644 87.9964 9.73013 88 13.2407L88 38.6441C88 39.0037 87.8571 39.3486 87.6029 39.6029C87.3486 39.8571 87.0037 40 86.6441 40C86.2845 40 85.9396 39.8571 85.6853 39.6029C85.431 39.3486 85.2881 39.0037 85.2881 38.6441L85.2881 13.2407C85.2845 10.4494 84.1741 7.7734 82.2004 5.79964C80.2266 3.82589 77.5506 2.71545 74.7593 2.71186L49.3559 2.71186C48.9963 2.71186 48.6514 2.56901 48.3971 2.31472C48.1429 2.06044 48 1.71555 48 1.35593Z" fill="white"/>
</svg>
