<svg width="23" height="24" viewBox="0 0 23 24" fill="none" xmlns="http://www.w3.org/2000/svg">
<path d="M22.396 9.22748H18.0972H11.5325V13.8681H17.7603C17.7603 13.8681 17.6296 14.8472 16.515 16.377C15.2672 17.6431 13.5323 18.4281 11.6143 18.4281C7.81247 18.4281 4.73094 15.3466 4.73094 11.5447C4.73094 7.74287 7.81247 4.66135 11.6143 4.66135C13.2955 4.66135 14.835 5.26447 16.0303 6.26438L19.3242 2.97042C17.2719 1.12444 14.5567 0 11.5789 0C5.18389 0 0 5.18389 0 11.5789C0 17.9739 5.18389 23.1578 11.5789 23.1578C14.6958 23.1578 17.5222 21.9259 19.6038 19.9225C21.4278 18.0301 22.2019 15.8007 22.4912 13.8681C22.8782 11.2822 22.396 9.22748 22.396 9.22748Z" fill="#FC5345"/>
</svg>
