<svg width="12" height="15" viewBox="0 0 12 15" fill="none" xmlns="http://www.w3.org/2000/svg">
<path d="M10 5.33334H9.33335V4.00001C9.33335 2.16001 7.84002 0.666672 6.00002 0.666672C4.16002 0.666672 2.66669 2.16001 2.66669 4.00001V5.33334H2.00002C1.26669 5.33334 0.666687 5.93334 0.666687 6.66667V13.3333C0.666687 14.0667 1.26669 14.6667 2.00002 14.6667H10C10.7334 14.6667 11.3334 14.0667 11.3334 13.3333V6.66667C11.3334 5.93334 10.7334 5.33334 10 5.33334ZM4.00002 4.00001C4.00002 2.89334 4.89335 2.00001 6.00002 2.00001C7.10669 2.00001 8.00002 2.89334 8.00002 4.00001V5.33334H4.00002V4.00001ZM10 13.3333H2.00002V6.66667H10V13.3333ZM6.00002 11.3333C6.73335 11.3333 7.33335 10.7333 7.33335 10C7.33335 9.26667 6.73335 8.66667 6.00002 8.66667C5.26669 8.66667 4.66669 9.26667 4.66669 10C4.66669 10.7333 5.26669 11.3333 6.00002 11.3333Z" fill="#838383" fill-opacity="0.39"/>
</svg>
