<svg width="26" height="28" viewBox="0 0 26 28" fill="none" xmlns="http://www.w3.org/2000/svg">
<path d="M19 18.08C18.24 18.08 17.56 18.38 17.04 18.85L9.91 14.7C9.96 14.47 10 14.24 10 14C10 13.76 9.96 13.53 9.91 13.3L16.96 9.19C17.5 9.69 18.21 10 19 10C20.66 10 22 8.66 22 7C22 5.34 20.66 4 19 4C17.34 4 16 5.34 16 7C16 7.24 16.04 7.47 16.09 7.7L9.04 11.81C8.5 11.31 7.79 11 7 11C5.34 11 4 12.34 4 14C4 15.66 5.34 17 7 17C7.79 17 8.5 16.69 9.04 16.19L16.16 20.35C16.11 20.56 16.08 20.78 16.08 21C16.08 22.61 17.39 23.92 19 23.92C20.61 23.92 21.92 22.61 21.92 21C21.92 19.39 20.61 18.08 19 18.08ZM19 6C19.55 6 20 6.45 20 7C20 7.55 19.55 8 19 8C18.45 8 18 7.55 18 7C18 6.45 18.45 6 19 6ZM7 15C6.45 15 6 14.55 6 14C6 13.45 6.45 13 7 13C7.55 13 8 13.45 8 14C8 14.55 7.55 15 7 15ZM19 22.02C18.45 22.02 18 21.57 18 21.02C18 20.47 18.45 20.02 19 20.02C19.55 20.02 20 20.47 20 21.02C20 21.57 19.55 22.02 19 22.02Z" fill="white"/>
</svg>