<svg width="81" height="81" viewBox="0 0 81 81" fill="none" xmlns="http://www.w3.org/2000/svg">
<g>
<circle cx="40.5" cy="40.5" r="40.5" fill="white" fill-opacity="0.49"/>
</g>
<path d="M52.3621 25.1263C52.1987 25.1263 52.0354 25.0855 51.8925 25.0038C47.9725 22.9825 44.5833 22.125 40.5204 22.125C36.4779 22.125 32.6396 23.0846 29.1483 25.0038C28.6583 25.2692 28.0458 25.0855 27.76 24.5955C27.4946 24.1055 27.6783 23.4725 28.1683 23.2071C31.9658 21.145 36.1308 20.0834 40.5204 20.0834C44.8691 20.0834 48.6666 21.043 52.8316 23.1867C53.3421 23.4521 53.5258 24.0646 53.2604 24.5546C53.0766 24.9221 52.7296 25.1263 52.3621 25.1263ZM23.1458 35.845C22.9416 35.845 22.7375 35.7838 22.5537 35.6613C22.0841 35.3346 21.9821 34.7017 22.3087 34.2321C24.33 31.3738 26.9025 29.128 29.965 27.5559C36.3758 24.2484 44.5833 24.228 51.0146 27.5355C54.0771 29.1075 56.6496 31.333 58.6708 34.1709C58.9975 34.62 58.8954 35.2734 58.4258 35.6C57.9562 35.9267 57.3233 35.8246 56.9966 35.355C55.1591 32.7825 52.8316 30.7613 50.0754 29.3525C44.2158 26.3513 36.7229 26.3513 30.8837 29.373C28.1071 30.8021 25.7796 32.8438 23.9421 35.4163C23.7787 35.7021 23.4725 35.845 23.1458 35.845ZM35.9062 60.488C35.6408 60.488 35.3754 60.3859 35.1916 60.1817C33.4154 58.4055 32.4558 57.2621 31.0879 54.7917C29.6791 52.2805 28.9441 49.218 28.9441 45.9309C28.9441 39.8671 34.13 34.9263 40.5 34.9263C46.87 34.9263 52.0558 39.8671 52.0558 45.9309C52.0558 46.5025 51.6066 46.9517 51.035 46.9517C50.4633 46.9517 50.0141 46.5025 50.0141 45.9309C50.0141 40.99 45.7471 36.968 40.5 36.968C35.2529 36.968 30.9858 40.99 30.9858 45.9309C30.9858 48.8709 31.6391 51.5863 32.8846 53.7913C34.1912 56.1392 35.0896 57.1396 36.6616 58.7321C37.0496 59.1405 37.0496 59.7734 36.6616 60.1817C36.4371 60.3859 36.1716 60.488 35.9062 60.488ZM50.545 56.7109C48.1154 56.7109 45.9716 56.0984 44.2158 54.8938C41.1737 52.8317 39.3566 49.4834 39.3566 45.9309C39.3566 45.3592 39.8058 44.91 40.3775 44.91C40.9491 44.91 41.3983 45.3592 41.3983 45.9309C41.3983 48.8096 42.8683 51.525 45.3591 53.1992C46.8087 54.1792 48.5033 54.6488 50.545 54.6488C51.035 54.6488 51.8516 54.5875 52.6683 54.4446C53.2196 54.3425 53.7504 54.71 53.8525 55.2817C53.9546 55.833 53.5871 56.3638 53.0154 56.4659C51.8516 56.6905 50.8308 56.7109 50.545 56.7109ZM46.4412 60.9167C46.3596 60.9167 46.2575 60.8963 46.1758 60.8759C42.9296 59.9775 40.8062 58.773 38.5808 56.5884C35.7225 53.7505 34.1504 49.9734 34.1504 45.9309C34.1504 42.6234 36.9679 39.9284 40.4387 39.9284C43.9096 39.9284 46.7271 42.6234 46.7271 45.9309C46.7271 48.1155 48.6258 49.8917 50.9737 49.8917C53.3216 49.8917 55.2204 48.1155 55.2204 45.9309C55.2204 38.2338 48.585 31.9863 40.4183 31.9863C34.62 31.9863 29.3116 35.2121 26.9229 40.2142C26.1266 41.868 25.7183 43.8075 25.7183 45.9309C25.7183 47.5234 25.8612 50.0346 27.0862 53.3013C27.2904 53.8321 27.025 54.4242 26.4941 54.608C25.9633 54.8121 25.3712 54.5263 25.1875 54.0159C24.1871 51.3413 23.6971 48.6871 23.6971 45.9309C23.6971 43.4809 24.1666 41.2555 25.0854 39.3159C27.8008 33.6196 33.8237 29.9242 40.4183 29.9242C49.7079 29.9242 57.2621 37.0905 57.2621 45.9105C57.2621 49.218 54.4446 51.913 50.9737 51.913C47.5029 51.913 44.6854 49.218 44.6854 45.9105C44.6854 43.7259 42.7866 41.9496 40.4387 41.9496C38.0908 41.9496 36.1921 43.7259 36.1921 45.9105C36.1921 49.4017 37.5396 52.6684 40.01 55.1184C41.9496 57.0375 43.8075 58.0992 46.6862 58.8955C47.2375 59.0384 47.5437 59.61 47.4008 60.1409C47.2987 60.6105 46.87 60.9167 46.4412 60.9167Z" fill="white"/>
</svg>
