<svg width="30" height="23" viewBox="0 0 30 23" fill="none" xmlns="http://www.w3.org/2000/svg">
<path d="M2.0529 1.14073C2.0529 1.14073 6.82918 6.82404 14.7677 7.17569C14.7677 7.17569 13.3645 1.41477 19.9517 0.0700345C22.9754 -0.41378 25.146 1.76763 25.146 1.76763C25.146 1.76763 26.3447 1.82462 29.1418 0.528386C29.1418 0.528386 28.7444 2.37998 26.6708 3.5877C26.6708 3.5877 28.7095 3.38884 30 2.82742C30 2.82742 28.7509 4.60868 27.0514 5.68787C27.0514 5.68787 27.6377 19.8143 12.619 22.699C5.96842 23.9649 0.780515 20.8595 0 20.3636C0 20.3636 4.77758 21.1227 9.09824 17.9663C9.09824 17.9663 4.96786 18.1664 3.36282 13.9588C3.36282 13.9588 4.65203 14.2486 6.09268 13.846C6.09268 13.846 1.08729 12.996 1.18566 8.12634C1.18566 8.12634 2.7894 8.81144 3.92846 8.82599C3.92846 8.82721 -0.818054 5.78123 2.0529 1.14073Z" fill="#00C7FF"/>
</svg>
